<?xml version="1.0" encoding="UTF-8"?>
<!DOCTYPE svg PUBLIC "-//W3C//DTD SVG 1.1//EN" "http://www.w3.org/Graphics/SVG/1.1/DTD/svg11.dtd">
<!-- Creator: CorelDRAW 2018 (64-Bit) -->
<svg xmlns="http://www.w3.org/2000/svg" xml:space="preserve" width="59.2666mm" height="13.5466mm" version="1.1" style="shape-rendering:geometricPrecision; text-rendering:geometricPrecision; image-rendering:optimizeQuality; fill-rule:evenodd; clip-rule:evenodd"
viewBox="0 0 5926.66 1354.66"
 xmlns:xlink="http://www.w3.org/1999/xlink">
 <defs>
  <style type="text/css">
   <![CDATA[
    .fil3 {fill:#2B2A29}
    .fil2 {fill:#008DD2}
    .fil0 {fill:#2B2A29;fill-rule:nonzero}
    .fil1 {fill:#008DD2;fill-rule:nonzero}
   ]]>
  </style>
 </defs>
 <g id="Слой_x0020_1">
  <metadata id="CorelCorpID_0Corel-Layer"/>
  <path class="fil0" d="M5259.4 1077.55l26.18 0c15.74,0 27.04,-1.94 33.76,-5.81 6.76,-3.88 10.11,-9.93 10.11,-18.15 0,-6.38 -2.51,-12.06 -7.47,-17.07 -5.01,-4.96 -16.02,-7.46 -33.09,-7.46l-29.49 0 0 48.49zm-24.96 -126.77l24.96 0 0 57.57 31.48 0c20.56,0 36.35,3.97 47.46,11.96 11.11,7.99 16.63,19 16.63,33.04 0,12.29 -4.63,22.78 -13.89,31.53 -9.26,8.75 -24.06,13.09 -44.43,13.09l-62.21 0 0 -147.19zm139.25 0l24.96 0 0 147.19 -24.96 0 0 -147.19zm-372.1 0l119.11 0 0 20.7 -47.07 0 0 126.49 -24.96 0 0 -126.49 -47.08 0 0 -20.7zm-233.14 0l24.95 0 0 27.79c0,12.01 0.71,20.71 2.18,26.1 1.41,5.38 4.87,10.11 10.35,14.13 5.43,4.02 12.29,6 20.56,6 9.46,0 21.65,-2.5 36.68,-7.47l0 -66.55 24.96 0 0 147.19 -24.96 0 0 -59.41c-15.36,4.82 -29.73,7.23 -43.06,7.23 -11.2,0 -21.08,-2.84 -29.63,-8.51 -8.56,-5.67 -14.37,-12.62 -17.45,-20.85 -3.07,-8.22 -4.58,-17.25 -4.58,-27.12l0 -38.53zm-209.32 59.56l81.96 0c-1.08,-12.38 -4.25,-21.65 -9.4,-27.84 -7.9,-9.6 -18.2,-14.42 -30.82,-14.42 -11.44,0 -21.03,3.83 -28.84,11.48 -7.75,7.66 -12.05,17.92 -12.9,30.78zm81.68 39.99l25.81 3.4c-4.02,14.98 -11.53,26.66 -22.5,34.93 -10.97,8.27 -24.96,12.43 -42.02,12.43 -21.46,0 -38.48,-6.62 -51.05,-19.85 -12.58,-13.19 -18.86,-31.76 -18.86,-55.64 0,-24.67 6.33,-43.86 19.05,-57.47 12.71,-13.66 29.21,-20.47 49.49,-20.47 19.61,0 35.64,6.66 48.07,20.04 12.43,13.38 18.67,32.19 18.67,56.44 0,1.46 -0.05,3.68 -0.14,6.61l-109.62 0c0.95,16.13 5.49,28.51 13.71,37.06 8.18,8.56 18.44,12.86 30.68,12.86 9.12,0 16.92,-2.41 23.35,-7.23 6.47,-4.82 11.58,-12.53 15.36,-23.11zm-383.59 -99.55l38.38 0 38.9 117.79 43.07 -117.79 35.63 0 0 147.19 -24.95 0 0 -118.5 -43.35 118.5 -22.31 0 -40.98 -124.17 0 124.17 -24.39 0 0 -147.19zm-435.84 126.77l26.18 0c15.74,0 27.04,-1.94 33.76,-5.81 6.76,-3.88 10.11,-9.93 10.11,-18.15 0,-6.38 -2.51,-12.06 -7.47,-17.07 -5.01,-4.96 -16.02,-7.46 -33.09,-7.46l-29.49 0 0 48.49zm-24.96 -126.77l24.96 0 0 57.57 31.48 0c20.56,0 36.35,3.97 47.46,11.96 11.11,7.99 16.63,19 16.63,33.04 0,12.29 -4.63,22.78 -13.89,31.53 -9.26,8.75 -24.06,13.09 -44.43,13.09l-62.21 0 0 -147.19zm139.25 0l24.96 0 0 147.19 -24.96 0 0 -147.19zm-385.76 0l24.96 0 0 61.26 69.19 0 0 -61.26 24.96 0 0 147.19 -24.96 0 0 -65.23 -69.19 0 0 65.23 -24.96 0 0 -147.19zm-152.64 73.46c-9.08,3.68 -22.69,6.8 -40.84,9.35 -10.31,1.47 -17.59,3.12 -21.84,4.97 -4.25,1.84 -7.51,4.54 -9.83,8.03 -2.32,3.55 -3.5,7.47 -3.5,11.82 0,6.57 2.5,12.1 7.56,16.49 5.06,4.4 12.43,6.62 22.12,6.62 9.6,0 18.16,-2.08 25.67,-6.29 7.47,-4.16 13,-9.87 16.5,-17.1 2.69,-5.63 4.02,-13.9 4.02,-24.82l0.14 -9.07zm1.98 55.3c-9.26,7.89 -18.2,13.42 -26.75,16.68 -8.56,3.26 -17.73,4.87 -27.56,4.87 -16.16,0 -28.6,-3.92 -37.29,-11.82 -8.7,-7.84 -13.05,-17.91 -13.05,-30.15 0,-7.19 1.65,-13.76 4.92,-19.72 3.31,-5.95 7.61,-10.67 12.9,-14.27 5.34,-3.59 11.3,-6.33 17.96,-8.18 4.92,-1.27 12.34,-2.5 22.22,-3.73 20.13,-2.36 35.03,-5.25 44.53,-8.55 0.09,-3.41 0.14,-5.58 0.14,-6.48 0,-10.11 -2.36,-17.25 -7.09,-21.41 -6.38,-5.63 -15.89,-8.42 -28.46,-8.42 -11.77,0 -20.47,2.09 -26.04,6.2 -5.63,4.11 -9.74,11.38 -12.43,21.88l-24.39 -3.4c2.22,-10.45 5.86,-18.91 10.96,-25.34 5.11,-6.43 12.48,-11.34 22.12,-14.84 9.6,-3.45 20.8,-5.2 33.47,-5.2 12.57,0 22.83,1.46 30.72,4.44 7.85,2.98 13.66,6.67 17.35,11.16 3.68,4.49 6.29,10.16 7.8,17.01 0.8,4.26 1.23,11.92 1.23,22.93l0 33.09c0,23.11 0.52,37.72 1.56,43.91 0.99,6.19 3.07,12.1 6.1,17.77l-26.1 0c-2.5,-5.24 -4.11,-11.39 -4.82,-18.43zm-324.98 -128.76l119.12 0 0 20.7 -47.08 0 0 126.49 -24.96 0 0 -126.49 -47.08 0 0 -20.7zm-232.62 0l24.96 0 0 61.26 69.2 0 0 -61.26 24.96 0 0 147.19 -24.96 0 0 -65.23 -69.2 0 0 65.23 -24.96 0 0 -147.19zm-230.63 73.64c0,18.81 4.11,32.9 12.34,42.21 8.27,9.36 18.62,14.04 31.15,14.04 12.38,0 22.69,-4.68 30.96,-14.09 8.22,-9.4 12.33,-23.72 12.33,-42.96 0,-18.15 -4.16,-31.91 -12.43,-41.22 -8.27,-9.36 -18.58,-14.04 -30.86,-14.04 -12.53,0 -22.88,4.64 -31.15,13.95 -8.23,9.31 -12.34,23.35 -12.34,42.11zm-25.53 -0.05c0,-27.17 7.57,-47.31 22.74,-60.4 12.62,-10.87 28.08,-16.31 46.28,-16.31 20.18,0 36.72,6.62 49.58,19.85 12.81,13.19 19.24,31.48 19.24,54.79 0,18.9 -2.84,33.74 -8.51,44.57 -5.67,10.82 -13.94,19.24 -24.81,25.24 -10.83,6.01 -22.69,8.98 -35.5,8.98 -20.61,0 -37.25,-6.57 -49.96,-19.76 -12.72,-13.19 -19.06,-32.18 -19.06,-56.96zm-295.76 -2.22c0,20.75 3.5,35.69 10.45,44.81 6.94,9.13 15.54,13.71 25.85,13.71 10.78,0 18.86,-4.54 24.2,-13.61 5.3,-9.08 7.99,-22.74 7.99,-40.89 0,-19.38 -2.79,-33.89 -8.41,-43.58 -5.63,-9.69 -14.09,-14.51 -25.44,-14.51 -10.21,0 -18.52,4.72 -25,14.18 -6.43,9.45 -9.64,22.74 -9.64,39.89zm93.16 2.84c0,22.12 3.03,36.97 9.13,44.57 6.05,7.61 13.66,11.39 22.78,11.39 10.11,0 18.76,-4.67 25.9,-14.04 7.14,-9.31 10.68,-23.86 10.68,-43.58 0,-18.57 -3.3,-32.47 -9.88,-41.59 -6.56,-9.12 -15.03,-13.66 -25.33,-13.66 -11.06,0 -19.33,4.72 -24.91,14.23 -5.58,9.5 -8.37,23.73 -8.37,42.68zm-24.81 -130.08l24.96 0 0 70.33c5.15,-5.91 10.82,-10.3 17.01,-13.23 6.15,-2.89 12.81,-4.35 19.9,-4.35 17.39,0 31.2,7.28 41.41,21.79 10.16,14.51 15.26,32.76 15.26,54.79 0,22.97 -5.48,41.5 -16.44,55.63 -10.97,14.13 -24.63,21.22 -40.94,21.22 -5.34,0 -10.78,-0.85 -16.3,-2.51 -5.54,-1.65 -12.15,-6.19 -19.9,-13.56l0 69.39 -24.96 0 0 -69.39c-4.97,5.34 -10.49,9.36 -16.54,12.05 -6.06,2.7 -12.58,4.02 -19.62,4.02 -15.41,0 -28.88,-6.76 -40.42,-20.23 -11.53,-13.52 -17.3,-32.85 -17.3,-58 0,-21.31 5.2,-39.14 15.65,-53.55 10.45,-14.42 24.44,-21.65 42.07,-21.65 7.42,0 14.09,1.46 20.09,4.35 6,2.93 11.34,7.32 16.07,13.23l0 -70.33z"/>
  <path class="fil0" d="M4617.81 531.07c-5.17,9.18 -8.04,14.35 -11.48,14.35 -6.89,0 -6.89,-8.61 -6.89,-13.78 0,-2.3 0,-4.02 0,-6.31l5.74 -230.17 -132.01 0 0 309.95 -0.12 38.16c-0.05,14.49 1.52,47.31 -7.07,58.37 -0.34,0.45 0.55,0.46 1.4,0.46l87.83 0.26c47.31,0.14 77.69,-13.42 115.42,-77.88l4.45 -7.6c30.31,-51.79 58.74,-99.6 90.6,-155.22 5.16,-9.18 8.03,-14.35 11.48,-14.35 6.88,0 6.88,8.61 6.88,13.78 0,2.29 0,4.01 0,6.31l-5.73 230.17 132.01 0 0 -309.95 0.12 -38.16c0.04,-14.34 -1.49,-46.63 6.79,-58.01 0.05,-0.07 0.39,-0.36 0.69,-0.63l-103.94 0c-39.44,2.8 -67.33,19.69 -101.13,77.43 -31.17,53.27 -63.74,108.16 -95.04,162.82zm-188.09 170.03c8.15,-11.54 6.63,-43.56 6.67,-57.83l0.12 -38.16 0 -2.62 -108.84 0c-43.05,0 -80.36,0 -97.58,-31.57 -3.45,-6.89 -9.76,-21.81 -9.76,-66.58 0,-19.52 1.72,-52.24 13.2,-72.33 17.79,-32.14 49.36,-31.56 91.84,-31.56l107.33 0 0 -99.88 -169.89 0c-45.35,0 -103.9,5.17 -140.63,52.23 -28.7,36.17 -35.02,86.68 -35.02,153.83 0,76.92 12.63,116.52 36.74,146.37 32.72,40.75 74.62,49.36 137.18,49.36l160.19 0 6.05 0c0.95,-0.34 1.82,-0.43 2.4,-1.26zm788.8 -8.49l0 -301.91 143.5 0 0 -99.88 -407.93 0c-0.3,0.27 -0.64,0.56 -0.69,0.63 -8.28,11.38 -6.75,43.67 -6.79,58.01l-0.12 38.16 0 3.08 142.31 0 0 301.91 129.72 0zm323.36 -161.54c-5.16,9.18 -8.04,14.35 -11.48,14.35 -6.89,0 -6.89,-8.61 -6.89,-13.78 0,-2.3 -0.05,-4.02 0,-6.31l5.74 -235.76 -132.01 0 0 315.54 -0.12 38.16c-0.04,14.49 1.53,47.31 -7.07,58.37 -0.34,0.45 0.55,0.46 1.4,0.46l87.84 0.26c47.3,0.14 77.69,-13.42 115.41,-77.88l4.45 -7.6c30.32,-51.79 58.74,-99.6 90.6,-155.22 5.16,-9.18 8.03,-14.35 11.48,-14.35 6.88,0 6.88,8.61 6.88,13.78 0,2.29 0,4.01 0,6.31l-5.73 230.17 132.01 0 0 -309.95 0.12 -38.16c0.04,-14.34 -1.49,-46.63 6.79,-58.01 0.05,-0.07 0.39,-0.36 0.69,-0.63l-103.94 0c-39.44,2.8 -67.33,19.69 -101.12,77.43 -31.18,53.27 -63.75,108.16 -95.05,162.82z"/>
  <path class="fil1" d="M2031.34 289.58l0 33.32 -58.47 0c-61.97,0 -98.81,7.6 -124.53,44.44 -23.98,34.5 -27.49,78.35 -27.49,121.62 0,42.09 2.93,87.7 23.39,121.61 24.56,39.76 64.32,48.53 114.6,48.53l72.5 0 0 39.76 77.18 0 0 -39.76 72.51 0c50.28,0 90.04,-8.77 114.6,-48.53 20.47,-33.91 23.39,-79.52 23.39,-121.61 0,-43.27 -3.51,-87.12 -27.49,-121.62 -25.72,-36.84 -62.56,-44.44 -125.12,-44.44l-57.89 0 0 -33.32 -77.18 0zm0 308.13l-34.49 0c-30.41,0 -71.34,-1.17 -87.71,-38.01 -3.5,-8.18 -8.77,-25.14 -8.77,-70.74 0,-45.61 6.43,-62.57 10.53,-70.75 15.2,-29.82 47.36,-33.91 74.84,-33.91l45.6 0 0 213.41zm77.18 0l0 -213.41 45.61 0c29.23,0 59.05,4.09 74.26,33.91 7.6,14.62 11.11,34.5 11.11,70.75 0,40.93 -3.51,59.05 -8.78,70.74 -16.37,36.84 -57.3,38.01 -87.7,38.01l-34.5 0zm413.97 -212.24c-36.83,0 -91.21,1.17 -125.12,32.74 -35.67,33.33 -39.76,91.8 -39.76,126.88 0,31.57 2.92,90.04 39.76,123.95 33.91,30.99 88.29,33.33 125.12,33.33 35.67,0 91.8,-2.34 125.13,-33.33 22.8,-21.63 39.76,-60.81 39.76,-126.29 0,-32.74 -4.1,-91.21 -39.76,-124.54 -33.91,-31.57 -88.29,-32.74 -125.13,-32.74zm-94.13 159.03c0,-19.88 0,-59.64 19.29,-81.85 19.3,-22.22 52.62,-24.56 74.84,-24.56 24.56,0 54.38,2.34 74.26,24.56 21.63,23.97 19.88,59.05 19.88,81.85 0,26.9 0,56.72 -20.47,79.52 -20.46,22.8 -47.94,25.73 -73.67,25.73 -24.55,0 -54.37,-2.93 -74.25,-25.73 -19.3,-22.22 -19.88,-53.79 -19.88,-79.52zm582.36 154.36l0 -309.89 -68.41 0 0 123.96 -147.93 0 0 -123.96 -68.41 0 0 309.89 68.41 0 0 -133.31 147.93 0 0 133.31 68.41 0zm208.15 0l0 -257.26 116.35 0 0 -52.63 -301.12 0 0 52.63 116.36 0 0 257.26 68.41 0zm154.36 -309.89l0 52.63 152.6 0c10.53,0 23.97,1.75 33.33,13.44 7.6,9.36 8.77,19.88 8.77,29.24l0 21.63 -134.48 0c-16.37,0 -37.42,1.17 -56.72,18.13 -23.38,20.46 -26.31,47.94 -26.31,75.42 0,22.81 1.76,62.57 26.9,84.2 17.54,15.2 39.17,15.2 56.13,15.2l147.93 0c14.62,0 31.57,-1.17 42.68,-12.28 11.11,-11.11 12.28,-28.65 12.28,-39.76l0 -160.79c0,-34.49 -9.94,-59.64 -22.8,-73.08 -14.04,-14.62 -38.01,-23.98 -64.32,-23.98l-175.99 0zm194.7 169.57l0 71.33c0,4.68 0,8.77 -4.68,12.86 -4.67,3.51 -11.11,3.51 -15.2,3.51l-95.31 0c-8.77,0 -17.54,-4.68 -22.21,-9.36 -8.19,-8.77 -9.36,-25.14 -9.36,-34.49 0,-22.22 5.26,-30.41 7.6,-33.33 7.6,-9.94 20.47,-10.52 25.14,-10.52l114.02 0zm399.94 140.32l0 -309.89 -68.41 0 0 123.96 -147.93 0 0 -123.96 -68.41 0 0 309.89 68.41 0 0 -133.31 147.93 0 0 133.31 68.41 0z"/>
  <path class="fil2" d="M248.48 414.43l2.52 -2.58 8.2 -7.71 8.54 -7.33 8.86 -6.96 9.17 -6.56 9.48 -6.15 9.74 -5.73 10.04 -5.3 10.27 -4.86 10.54 -4.4 10.75 -3.92 10.99 -3.45 11.19 -2.94 11.4 -2.45 11.59 -1.92 11.75 -1.39 11.93 -0.84 12.08 -0.29 12.08 0.29 11.93 0.84 11.75 1.39 11.59 1.92 11.39 2.45 11.2 2.94 10.99 3.45 10.76 3.92 10.53 4.4 10.29 4.86 10.02 5.3 9.75 5.73 9.47 6.15 9.17 6.56 8.87 6.96 8.53 7.33 8.2 7.71 7.85 8.06 7.49 8.41 7.11 8.72 6.72 9.05 6.32 9.35 5.91 9.64 5.47 9.92 5.04 10.18 4.59 10.43 4.11 10.67 3.65 10.9c12.48,44.09 12.48,91.94 0,136.04l-3.65 10.89 -4.11 10.68 -4.59 10.43 -5.04 10.18 -5.47 9.91 -5.91 9.64 -6.32 9.36 -6.72 9.04 -7.11 8.73 -7.49 8.41 -7.85 8.06 -8.2 7.7 -1.84 1.59 4.62 4.74 8.2 7.7 8.54 7.34 8.86 6.95 9.17 6.56 9.48 6.15 9.74 5.74 10.04 5.3 10.27 4.85 10.54 4.4 10.75 3.92 10.99 3.45 11.19 2.95 11.4 2.44 11.59 1.92 11.75 1.4 11.93 0.83 11.26 0.28 0.83 -1.07 0.83 1.07 11.24 -0.28 11.93 -0.83 11.75 -1.4 11.59 -1.92 11.39 -2.44 11.2 -2.95 10.99 -3.45 10.76 -3.92 10.53 -4.4 10.29 -4.85 10.02 -5.3 9.75 -5.74 9.47 -6.15 9.17 -6.56 8.87 -6.96 8.53 -7.33 8.2 -7.7 4.63 -4.75 -1.83 -1.58 -8.2 -7.7 -7.85 -8.06 -7.49 -8.41 -7.11 -8.73 -6.72 -9.05 -6.33 -9.35 -5.9 -9.64 -5.48 -9.91 -5.03 -10.18 -4.59 -10.43 -4.12 -10.68 -3.65 -10.89c-12.48,-44.05 -12.48,-92 0,-136.04l3.65 -10.9 4.12 -10.67 4.59 -10.43 5.03 -10.18 5.48 -9.91 5.9 -9.65 6.33 -9.35 6.72 -9.05 7.11 -8.73 7.49 -8.4 7.85 -8.06 8.2 -7.71 8.53 -7.33 8.86 -6.95 9.18 -6.56 9.46 -6.16 9.76 -5.73 10.02 -5.3 10.29 -4.86 10.53 -4.39 10.76 -3.93 10.99 -3.45 11.19 -2.94 11.4 -2.45 11.58 -1.92 11.76 -1.39 11.93 -0.84 12.07 -0.29 12.09 0.29 11.92 0.84 11.77 1.39 11.57 1.92 11.4 2.45 11.2 2.94 10.98 3.45 10.76 3.93 10.53 4.4 10.29 4.85 10.02 5.3 9.75 5.73 9.47 6.16 9.18 6.56 8.86 6.95 8.53 7.33 8.2 7.71 2.52 2.58 220.62 0 -6.78 -14.71 -9.29 -17.91 -10.08 -17.42 -10.84 -16.9 -11.59 -16.36 -12.3 -15.79 -13 -15.2 -13.67 -14.59 -14.32 -13.95 -14.94 -13.28 -15.53 -12.61 -16.13 -11.89 -16.67 -11.16 -17.19 -10.41 -17.72 -9.63 -18.19 -8.83 -18.65 -8 -19.09 -7.15 -19.49 -6.27 -19.89 -5.37 -20.24 -4.45 -20.58 -3.5 -20.88 -2.53 -21.17 -1.54 -21.43 -0.51 -21.42 0.51 -21.17 1.54 -20.88 2.53 -20.58 3.5 -20.24 4.45 -19.89 5.37 -19.49 6.27 -19.09 7.15 -18.65 8 -18.19 8.83 -17.71 9.63 -17.2 10.41 -16.67 11.16 -16.12 11.89 -15.54 12.61 -14.94 13.28 -14.32 13.95 -13.67 14.59 -13 15.2 -8.85 11.36 -8.86 -11.36 -12.99 -15.2 -13.67 -14.58 -14.32 -13.96 -14.94 -13.28 -15.54 -12.61 -16.12 -11.89 -16.67 -11.17 -17.21 -10.4 -17.7 -9.63 -18.19 -8.83 -18.65 -8.01 -19.09 -7.14 -19.5 -6.27 -19.88 -5.37 -20.24 -4.45 -20.58 -3.51 -20.89 -2.53 -21.17 -1.53 -21.42 -0.51 -21.42 0.51 -21.17 1.53 -20.89 2.53 -20.58 3.51 -20.24 4.45 -19.88 5.37 -19.5 6.27 -19.08 7.14 -18.66 8.01 -18.19 8.83 -17.71 9.63 -17.2 10.4 -16.67 11.17 -16.12 11.89 -15.54 12.61 -14.94 13.28 -14.32 13.96 -13.66 14.58 -13 15.2 -12.3 15.79 -11.59 16.36 -10.85 16.9 -10.07 17.42 -9.3 17.91 -6.78 14.71 220.62 0z"/>
  <polygon class="fil3" points="385.16,667.52 388.51,685.56 392.67,703.3 397.62,720.73 403.33,737.82 409.79,754.56 416.98,770.92 424.89,786.89 433.47,802.43 442.73,817.55 452.64,832.21 463.17,846.4 474.32,860.08 486.06,873.26 498.36,885.88 511.22,897.97 524.6,909.46 538.49,920.36 552.87,930.65 567.72,940.3 583.01,949.28 598.73,957.59 614.86,965.21 631.37,972.11 648.25,978.27 665.48,983.67 683.04,988.29 700.91,992.12 719.07,995.13 737.51,997.32 756.2,998.64 775.13,999.08 794.06,998.64 812.76,997.32 831.2,995.13 849.36,992.12 867.22,988.29 884.78,983.67 902.01,978.27 918.9,972.11 935.42,965.21 951.54,957.59 967.26,949.28 982.55,940.3 997.4,930.64 1011.78,920.36 1025.67,909.45 1039.05,897.97 1051.9,885.89 1064.2,873.25 1075.94,860.08 1087.09,846.4 1097.63,832.2 1107.54,817.54 1116.8,802.44 1125.39,786.89 1133.29,770.91 1140.48,754.56 1146.93,737.83 1152.65,720.73 1157.6,703.3 1161.76,685.55 1165.11,667.51 1170.32,629.56 1417.65,629.56 1412.15,684.22 1407.62,714.64 1401.67,744.58 1394.36,773.99 1385.7,802.86 1375.76,831.16 1364.54,858.82 1352.09,885.82 1338.44,912.13 1323.65,937.71 1307.72,962.53 1290.7,986.56 1272.63,1009.74 1253.55,1032.07 1233.47,1053.48 1212.44,1073.97 1190.49,1093.49 1167.68,1112 1144,1129.48 1119.51,1145.86 1094.26,1161.15 1068.25,1175.29 1041.54,1188.25 1014.15,1200 986.12,1210.5 957.5,1219.7 928.31,1227.59 898.59,1234.12 868.37,1239.27 837.7,1242.98 806.61,1245.23 775.13,1246 743.66,1245.23 712.57,1242.98 681.9,1239.27 651.68,1234.12 621.95,1227.59 592.76,1219.7 564.13,1210.5 536.11,1200 508.72,1188.25 482.01,1175.29 456.01,1161.15 430.75,1145.86 406.26,1129.47 382.59,1112 359.77,1093.49 337.83,1073.97 316.8,1053.48 296.73,1032.07 277.63,1009.74 259.56,986.56 242.55,962.53 226.62,937.71 211.82,912.13 198.18,885.82 185.73,858.81 174.51,831.16 164.56,802.86 155.9,774 148.6,744.57 142.65,714.64 138.12,684.23 132.64,629.56 379.95,629.56 "/>
 </g>
</svg>
